# xmcd
#
# Track frame offsets:
# 150
# 5515
# 27428
# 46455
# 66635
# 79913
# 95660
# 116530
# 130973
# 143425
# 164440
# 176855
# 185638
# 199335
# 221058
# 235210
# 252585
# 275153
#
# Disc length: 4015 seconds
#
#
# Revision: 4
# Processed by: cddbd v1.5.2PL0 Copyright (c) Steve Scherf et al.
# Submitted via: FreeRIP 2.942 
#
DISCID=1e0fad12
DTITLE=Simone - Sou Eu
DYEAR=1993
DGENRE=MPB
TTITLE0=Canções E Momentos
TTITLE1=Sou Eu
TTITLE2=Sangrando
TTITLE3=Amor De Índio
TTITLE4=Ela E Eu
TTITLE5=Outra Vez
TTITLE6=Iolanda
TTITLE7=Mar E Lua
TTITLE8=Meu Bem Querer
TTITLE9=Alma
TTITLE10=Raio De Luz
TTITLE11=Carinhoso
TTITLE12=Onde Anda Você
TTITLE13=Jura Secreta
TTITLE14=Quase Um Segundo
TTITLE15=A Distância
TTITLE16=Caçador De Mim
TTITLE17=Vendedor De Sonhos
EXTD=
EXTT0=
EXTT1=
EXTT2=
EXTT3=
EXTT4=
EXTT5=
EXTT6=
EXTT7=
EXTT8=
EXTT9=
EXTT10=
EXTT11=
EXTT12=
EXTT13=
EXTT14=
EXTT15=
EXTT16=
EXTT17=
PLAYORDER=
